<mxfile host="65bd71144e">
    <diagram id="yWcbmBcgYv18N1yK0o1Z" name="Page-1">
        <mxGraphModel dx="496" dy="431" grid="1" gridSize="10" guides="1" tooltips="1" connect="1" arrows="1" fold="1" page="1" pageScale="1" pageWidth="850" pageHeight="1100" math="0" shadow="0">
            <root>
                <mxCell id="0"/>
                <mxCell id="1" parent="0"/>
                <mxCell id="2" value="Stateless (sin estado)" style="text;html=1;strokeColor=none;fillColor=none;align=center;verticalAlign=middle;whiteSpace=wrap;rounded=0;" vertex="1" parent="1">
                    <mxGeometry x="110" y="100" width="350" height="30" as="geometry"/>
                </mxCell>
                <mxCell id="3" value="Statefull (tiene estado)" style="text;html=1;strokeColor=none;fillColor=none;align=center;verticalAlign=middle;whiteSpace=wrap;rounded=0;" vertex="1" parent="1">
                    <mxGeometry x="540" y="100" width="300" height="30" as="geometry"/>
                </mxCell>
                <mxCell id="4" value="StudentsListComponent" style="rounded=1;whiteSpace=wrap;html=1;" vertex="1" parent="1">
                    <mxGeometry x="200" y="140" width="170" height="60" as="geometry"/>
                </mxCell>
                <mxCell id="5" value="StudentPageComponent" style="rounded=1;whiteSpace=wrap;html=1;" vertex="1" parent="1">
                    <mxGeometry x="605" y="140" width="170" height="60" as="geometry"/>
                </mxCell>
            </root>
        </mxGraphModel>
    </diagram>
</mxfile>
